<svg id="icon_navigation_apps_24px" data-name="icon/navigation/apps_24px" xmlns="http://www.w3.org/2000/svg" width="39" height="39" viewBox="0 0 39 39">
  <rect id="Boundary" width="39" height="39" fill="none"/>
  <path id="_Color" data-name=" ↳Color" d="M31,31H23.249V23.249H31V31ZM19.375,31H11.625V23.249h7.749V31ZM7.749,31H0V23.249H7.749V31ZM31,19.375H23.249V11.625H31v7.749Zm-11.625,0H11.625V11.625h7.749v7.749Zm-11.625,0H0V11.625H7.749v7.749ZM31,7.749H23.249V0H31V7.749Zm-11.625,0H11.625V0h7.749V7.749Zm-11.625,0H0V0H7.749V7.749Z" transform="translate(4 4)" fill="#acd3ce"/>
</svg>
